<svg width="20" height="16" viewBox="0 0 20 16" fill="none" xmlns="http://www.w3.org/2000/svg">
<path d="M1.50238 6.2507L0.751188 7.00189L0 6.2507L0.751188 5.49951L1.50238 6.2507ZM19.5649 14.7507C19.5649 15.0325 19.4529 15.3027 19.2537 15.502C19.0544 15.7013 18.7842 15.8132 18.5024 15.8132C18.2206 15.8132 17.9503 15.7013 17.7511 15.502C17.5518 15.3027 17.4399 15.0325 17.4399 14.7507H19.5649ZM6.06369 12.3144L0.751188 7.00189L2.25356 5.49951L7.56606 10.812L6.06369 12.3144ZM0.751188 5.49951L6.06369 0.187012L7.56606 1.68939L2.25356 7.00189L0.751188 5.49951ZM1.50238 5.1882H12.1274V7.3132H1.50238V5.1882ZM19.5649 12.6257V14.7507H17.4399V12.6257H19.5649ZM12.1274 5.1882C14.0999 5.1882 15.9917 5.97179 17.3865 7.36659C18.7813 8.76139 19.5649 10.6532 19.5649 12.6257H17.4399C17.4399 11.2167 16.8802 9.86548 15.8839 8.86919C14.8876 7.87291 13.5363 7.3132 12.1274 7.3132V5.1882Z" fill="black"/>
</svg>
