<svg width="19" height="18" viewBox="0 0 19 18" fill="none" xmlns="http://www.w3.org/2000/svg">
<path d="M13.375 2.58333V0.75M5.125 2.58333V0.75M1.22917 5.33333H17.2708M1 7.207C1 5.26825 1 4.29842 1.39967 3.55775C1.76086 2.89696 2.32169 2.36725 3.002 2.04433C3.78667 1.66667 4.81333 1.66667 6.86667 1.66667H11.6333C13.6867 1.66667 14.7133 1.66667 15.498 2.04433C16.1883 2.37617 16.7483 2.906 17.1003 3.55683C17.5 4.29933 17.5 5.26917 17.5 7.20792V11.7106C17.5 13.6493 17.5 14.6192 17.1003 15.3598C16.7391 16.0206 16.1783 16.5503 15.498 16.8733C14.7133 17.25 13.6867 17.25 11.6333 17.25H6.86667C4.81333 17.25 3.78667 17.25 3.002 16.8723C2.32182 16.5497 1.76101 16.0203 1.39967 15.3598C1 14.6173 1 13.6475 1 11.7088V7.207Z" stroke="#0A0909" stroke-width="1.125" stroke-linecap="round" stroke-linejoin="round"/>
</svg>
