<svg width="12" height="10" viewBox="0 0 12 10" fill="none" xmlns="http://www.w3.org/2000/svg">
<path fill-rule="evenodd" clip-rule="evenodd" d="M3.58517 1.16551C3.72623 0.958856 3.91736 0.789408 4.14157 0.672205C4.36579 0.555003 4.61617 0.49367 4.87049 0.493652H6.85819C7.11251 0.49367 7.36289 0.555003 7.58711 0.672205C7.81133 0.789408 8.00245 0.958856 8.14351 1.16551L8.56165 1.77853C8.60869 1.84738 8.6724 1.90383 8.74714 1.94287C8.82188 1.98191 8.90533 2.00232 8.99009 2.00231H9.46899C9.87871 2.00231 10.2716 2.16126 10.5614 2.44419C10.8511 2.72712 11.0138 3.11085 11.0138 3.51097V8.03695C11.0138 8.43707 10.8511 8.8208 10.5614 9.10373C10.2716 9.38666 9.87871 9.54561 9.46899 9.54561H2.25969C1.84997 9.54561 1.45704 9.38666 1.16732 9.10373C0.877604 8.8208 0.714844 8.43707 0.714844 8.03695V3.51097C0.714844 3.11085 0.877604 2.72712 1.16732 2.44419C1.45704 2.16126 1.84997 2.00231 2.25969 2.00231H2.7386C2.82335 2.00232 2.9068 1.98191 2.98154 1.94287C3.05628 1.90383 3.11999 1.84738 3.16703 1.77853L3.58517 1.16551ZM4.83444 5.52252C4.83444 5.25577 4.94295 4.99995 5.13609 4.81133C5.32924 4.62271 5.59119 4.51674 5.86434 4.51674C6.13749 4.51674 6.39945 4.62271 6.59259 4.81133C6.78573 4.99995 6.89424 5.25577 6.89424 5.52252C6.89424 5.78926 6.78573 6.04508 6.59259 6.2337C6.39945 6.42232 6.13749 6.52829 5.86434 6.52829C5.59119 6.52829 5.32924 6.42232 5.13609 6.2337C4.94295 6.04508 4.83444 5.78926 4.83444 5.52252ZM5.86434 3.51097C5.31805 3.51097 4.79413 3.7229 4.40784 4.10014C4.02156 4.47738 3.80454 4.98902 3.80454 5.52252C3.80454 6.05601 4.02156 6.56765 4.40784 6.94489C4.79413 7.32213 5.31805 7.53406 5.86434 7.53406C6.41063 7.53406 6.93455 7.32213 7.32084 6.94489C7.70713 6.56765 7.92414 6.05601 7.92414 5.52252C7.92414 4.98902 7.70713 4.47738 7.32084 4.10014C6.93455 3.7229 6.41063 3.51097 5.86434 3.51097Z" fill="#363636"/>
</svg>
