<svg width="15" height="15" viewBox="0 0 15 15" fill="none" xmlns="http://www.w3.org/2000/svg">
<path fill-rule="evenodd" clip-rule="evenodd" d="M4.76262 1.36475C4.96551 0.937228 5.40245 0.640137 5.90896 0.640137H8.80741C9.31319 0.640137 9.75013 0.937228 9.95375 1.36475C10.4487 1.3691 10.8349 1.39156 11.1798 1.52634C11.5915 1.6874 11.9496 1.96112 12.2131 2.31617C12.479 2.6734 12.6037 3.13281 12.7754 3.76395L12.8022 3.86249L13.2297 5.43273C13.515 5.57615 13.765 5.78106 13.9616 6.03271C14.4123 6.61023 14.492 7.29789 14.4123 8.08627C14.334 8.85146 14.0935 9.81519 13.792 11.0217L13.7725 11.0978C13.5819 11.8608 13.4268 12.4803 13.2435 12.9636C13.0507 13.468 12.8073 13.881 12.4051 14.1948C12.0037 14.5085 11.5436 14.644 11.0081 14.7092C10.4943 14.7701 9.85593 14.7701 9.06972 14.7701H5.64665C4.86044 14.7701 4.22133 14.7701 3.70831 14.7085C3.17209 14.6447 2.71269 14.5085 2.31053 14.194C1.90909 13.881 1.66562 13.468 1.47287 12.9636C1.28882 12.4803 1.13448 11.8608 0.943905 11.0978L0.924341 11.0217C0.622901 9.81519 0.381605 8.85146 0.304072 8.08699C0.224364 7.29716 0.304071 6.61023 0.754056 6.03271C0.959122 5.7704 1.20477 5.5762 1.48592 5.43273L1.91344 3.86249L1.94097 3.76395C2.11271 3.13281 2.23734 2.6734 2.50327 2.31544C2.76684 1.96066 3.12492 1.6872 3.53657 1.52634C3.88149 1.39156 4.26698 1.36837 4.76262 1.36475ZM4.76334 2.45384C4.28365 2.45892 4.09163 2.47703 3.93221 2.53935C3.71045 2.62607 3.5176 2.77348 3.37571 2.9647C3.24818 3.13643 3.17282 3.37628 2.96268 4.14944L2.70617 5.08854C3.45831 4.98782 4.4293 4.98782 5.63505 4.98782H9.08059C10.2871 4.98782 11.2581 4.98782 12.0095 5.08854L11.7537 4.14872C11.5428 3.37555 11.4682 3.13571 11.3407 2.96397C11.1988 2.77275 11.0059 2.62535 10.7842 2.53862C10.6247 2.47631 10.432 2.45819 9.9523 2.45312C9.84931 2.66953 9.6871 2.85233 9.48447 2.98032C9.28184 3.10831 9.04708 3.17626 8.80741 3.17628H5.90896C5.66929 3.17626 5.43453 3.10831 5.2319 2.98032C5.02927 2.85233 4.86706 2.66953 4.76407 2.45312M5.90896 1.72706C5.86091 1.72706 5.81484 1.74614 5.78086 1.78012C5.74689 1.81409 5.7278 1.86017 5.7278 1.90821C5.7278 1.95626 5.74689 2.00233 5.78086 2.03631C5.81484 2.07028 5.86091 2.08936 5.90896 2.08936H8.80741C8.85546 2.08936 8.90153 2.07028 8.93551 2.03631C8.96948 2.00233 8.98856 1.95626 8.98856 1.90821C8.98856 1.86017 8.96948 1.81409 8.93551 1.78012C8.90153 1.74614 8.85546 1.72706 8.80741 1.72706H5.90896ZM2.79312 6.17329C2.13372 6.26893 1.81417 6.44284 1.612 6.70225C1.40911 6.96094 1.31853 7.31238 1.38592 7.97612C1.45476 8.65436 1.67577 9.54129 1.99025 10.8021C2.19169 11.605 2.33082 12.1615 2.49023 12.5774C2.6424 12.9789 2.79239 13.1912 2.98079 13.3383C3.16847 13.4846 3.41049 13.5781 3.83801 13.6296C4.28003 13.6825 4.85247 13.6832 5.68143 13.6832H9.03639C9.86462 13.6832 10.4385 13.6825 10.8798 13.6296C11.3073 13.5788 11.5493 13.4846 11.737 13.3383C11.9254 13.1912 12.0747 12.9789 12.2283 12.5774C12.3863 12.1615 12.5261 11.605 12.7268 10.8021C13.0421 9.54129 13.2631 8.65436 13.3312 7.97612C13.3993 7.31238 13.308 6.96022 13.1058 6.70153C12.9037 6.44284 12.5841 6.26893 11.924 6.17329C11.2501 6.07619 10.3356 6.07474 9.03639 6.07474H5.68143C4.3822 6.07474 3.46773 6.07619 2.79384 6.17329" fill="white"/>
</svg>
