<svg width="25" height="24" viewBox="0 0 25 24" fill="none" xmlns="http://www.w3.org/2000/svg">
<path d="M24.156 22.7862V1.76225C24.156 1.16271 23.6681 0.674805 23.0685 0.674805H2.0446C1.44505 0.674805 0.957153 1.16271 0.957153 1.76225V8.28692C0.957153 8.38306 0.995343 8.47526 1.06332 8.54323C1.1313 8.61121 1.2235 8.6494 1.31964 8.6494C1.41577 8.6494 1.50797 8.61121 1.57595 8.54323C1.64393 8.47526 1.68212 8.38306 1.68212 8.28692V1.76225C1.68212 1.66611 1.72031 1.57391 1.78829 1.50594C1.85626 1.43796 1.94846 1.39977 2.0446 1.39977H23.0685C23.1647 1.39977 23.2569 1.43796 23.3249 1.50594C23.3928 1.57391 23.431 1.66611 23.431 1.76225V22.7862C23.431 22.8823 23.3928 22.9745 23.3249 23.0425C23.2569 23.1105 23.1647 23.1487 23.0685 23.1487H16.5439C16.4477 23.1487 16.3555 23.1869 16.2876 23.2548C16.2196 23.3228 16.1814 23.415 16.1814 23.5112C16.1814 23.6073 16.2196 23.6995 16.2876 23.7675C16.3555 23.8354 16.4477 23.8736 16.5439 23.8736H23.0685C23.6681 23.8736 24.156 23.3857 24.156 22.7862Z" fill="#2B2B2B"/>
<path d="M2.04484 10.0995C1.4453 10.0995 0.957397 10.5874 0.957397 11.187V22.7864C0.957397 23.3859 1.4453 23.8738 2.04484 23.8738H13.6443C14.2438 23.8738 14.7317 23.3859 14.7317 22.7864V10.6121L19.8064 5.53732V10.462C19.8064 10.5581 19.8446 10.6503 19.9126 10.7183C19.9806 10.7863 20.0728 10.8245 20.1689 10.8245C20.2651 10.8245 20.3573 10.7863 20.4252 10.7183C20.4932 10.6503 20.5314 10.5581 20.5314 10.462V4.66229C20.5314 4.56615 20.4932 4.47395 20.4252 4.40597C20.3573 4.33799 20.2651 4.2998 20.1689 4.2998H14.3692C14.2731 4.2998 14.1809 4.33799 14.1129 4.40597C14.0449 4.47395 14.0067 4.56615 14.0067 4.66229C14.0067 4.75842 14.0449 4.85062 14.1129 4.9186C14.1809 4.98658 14.2731 5.02477 14.3692 5.02477H19.2932L14.2184 10.0995H2.04484ZM14.0067 22.7864C14.0067 22.8825 13.9685 22.9747 13.9006 23.0427C13.8326 23.1107 13.7404 23.1489 13.6443 23.1489H2.04484C1.94871 23.1489 1.85651 23.1107 1.78853 23.0427C1.72055 22.9747 1.68236 22.8825 1.68236 22.7864V11.187C1.68236 11.0908 1.72055 10.9986 1.78853 10.9306C1.85651 10.8627 1.94871 10.8245 2.04484 10.8245H14.0067V22.7864Z" fill="#2B2B2B"/>
</svg>
