<svg width="20" height="19" viewBox="0 0 20 19" fill="none" xmlns="http://www.w3.org/2000/svg">
<path d="M4 2.95162C3.99974 3.48206 3.78877 3.99066 3.41351 4.36554C3.03825 4.74043 2.52943 4.95089 1.999 4.95062C1.46857 4.95036 0.959965 4.73939 0.585079 4.36413C0.210194 3.98887 -0.000264966 3.48006 2.50361e-07 2.94962C0.000265467 2.41919 0.211233 1.91059 0.586494 1.5357C0.961754 1.16082 1.47057 0.950358 2.001 0.950623C2.53143 0.950888 3.04004 1.16186 3.41492 1.53712C3.78981 1.91238 4.00027 2.42119 4 2.95162ZM4.06 6.43162H0.0600002V18.9516H4.06V6.43162ZM10.38 6.43162H6.4V18.9516H10.34V12.3816C10.34 8.72162 15.11 8.38162 15.11 12.3816V18.9516H19.06V11.0216C19.06 4.85162 12 5.08162 10.34 8.11162L10.38 6.43162Z" fill="#343434"/>
</svg>
