<svg width="1204" height="7" viewBox="0 0 1204 7" fill="none" xmlns="http://www.w3.org/2000/svg">
<path opacity="0.4" d="M0.11325 4.01342L3.00244 6.89774L5.88675 4.00855L2.99756 1.12424L0.11325 4.01342ZM1203.89 2.99758L1201 0.113266L1198.11 3.00245L1201 5.88677L1203.89 2.99758ZM3.00042 4.51099L6.48298 4.50805L6.48214 3.50805L2.99958 3.51099L3.00042 4.51099ZM13.4481 4.50217L20.4132 4.49629L20.4124 3.49629L13.4473 3.50217L13.4481 4.50217ZM27.3783 4.49041L34.3434 4.48454L34.3426 3.48454L27.3775 3.49041L27.3783 4.49041ZM41.3086 4.47866L48.2737 4.47278L48.2728 3.47278L41.3077 3.47866L41.3086 4.47866ZM55.2388 4.4669L62.2039 4.46103L62.2031 3.46103L55.2379 3.4669L55.2388 4.4669ZM69.169 4.45515L76.1341 4.44927L76.1333 3.44927L69.1682 3.45515L69.169 4.45515ZM83.0993 4.44339L90.0644 4.43751L90.0635 3.43751L83.0984 3.44339L83.0993 4.44339ZM97.0295 4.43164L103.995 4.42576L103.994 3.42576L97.0286 3.43164L97.0295 4.43164ZM110.96 4.41988L117.925 4.414L117.924 3.414L110.959 3.41988L110.96 4.41988ZM124.89 4.40813L131.855 4.40225L131.854 3.40225L124.889 3.40813L124.89 4.40813ZM138.82 4.39637L145.785 4.39049L145.784 3.39049L138.819 3.39637L138.82 4.39637ZM152.75 4.38461L159.716 4.37874L159.715 3.37874L152.75 3.38462L152.75 4.38461ZM166.681 4.37286L173.646 4.36698L173.645 3.36698L166.68 3.37286L166.681 4.37286ZM180.611 4.3611L187.576 4.35523L187.575 3.35523L180.61 3.3611L180.611 4.3611ZM194.541 4.34935L201.506 4.34347L201.505 3.34347L194.54 3.34935L194.541 4.34935ZM208.471 4.33759L215.436 4.33172L215.436 3.33172L208.471 3.33759L208.471 4.33759ZM222.402 4.32584L229.367 4.31996L229.366 3.31996L222.401 3.32584L222.402 4.32584ZM236.332 4.31408L243.297 4.3082L243.296 3.3082L236.331 3.31408L236.332 4.31408ZM250.262 4.30233L257.227 4.29645L257.226 3.29645L250.261 3.30233L250.262 4.30233ZM264.192 4.29057L271.157 4.28469L271.157 3.28469L264.191 3.29057L264.192 4.29057ZM278.123 4.27882L285.088 4.27294L285.087 3.27294L278.122 3.27882L278.123 4.27882ZM292.053 4.26706L299.018 4.26118L299.017 3.26118L292.052 3.26706L292.053 4.26706ZM305.983 4.2553L312.948 4.24943L312.947 3.24943L305.982 3.25531L305.983 4.2553ZM319.913 4.24355L326.878 4.23767L326.877 3.23767L319.912 3.24355L319.913 4.24355ZM333.843 4.23179L340.809 4.22592L340.808 3.22592L333.843 3.23179L333.843 4.23179ZM347.774 4.22004L354.739 4.21416L354.738 3.21416L347.773 3.22004L347.774 4.22004ZM361.704 4.20828L368.669 4.20241L368.668 3.20241L361.703 3.20828L361.704 4.20828ZM375.634 4.19653L382.599 4.19065L382.598 3.19065L375.633 3.19653L375.634 4.19653ZM389.564 4.18477L396.529 4.17889L396.529 3.17889L389.564 3.18477L389.564 4.18477ZM403.495 4.17302L410.46 4.16714L410.459 3.16714L403.494 3.17302L403.495 4.17302ZM417.425 4.16126L424.39 4.15538L424.389 3.15538L417.424 3.16126L417.425 4.16126ZM431.355 4.14951L438.32 4.14363L438.319 3.14363L431.354 3.14951L431.355 4.14951ZM445.285 4.13775L452.25 4.13187L452.25 3.13187L445.284 3.13775L445.285 4.13775ZM459.216 4.12599L466.181 4.12012L466.18 3.12012L459.215 3.12599L459.216 4.12599ZM473.146 4.11424L480.111 4.10836L480.11 3.10836L473.145 3.11424L473.146 4.11424ZM487.076 4.10248L494.041 4.09661L494.04 3.09661L487.075 3.10248L487.076 4.10248ZM501.006 4.09073L507.971 4.08485L507.971 3.08485L501.005 3.09073L501.006 4.09073ZM514.936 4.07897L521.902 4.07309L521.901 3.0731L514.936 3.07897L514.936 4.07897ZM528.867 4.06722L535.832 4.06134L535.831 3.06134L528.866 3.06722L528.867 4.06722ZM542.797 4.05546L549.762 4.04958L549.761 3.04958L542.796 3.05546L542.797 4.05546ZM556.727 4.04371L563.692 4.03783L563.691 3.03783L556.726 3.04371L556.727 4.04371ZM570.657 4.03195L577.622 4.02607L577.621 3.02607L570.656 3.03195L570.657 4.03195ZM584.587 4.0202L591.552 4.01432L591.552 3.01432L584.587 3.0202L584.587 4.0202ZM598.518 4.00844L605.483 4.00256L605.482 3.00256L598.517 3.00844L598.518 4.00844ZM612.448 3.99668L619.413 3.99081L619.412 2.99081L612.447 2.99668L612.448 3.99668ZM626.378 3.98493L633.343 3.97905L633.342 2.97905L626.377 2.98493L626.378 3.98493ZM640.308 3.97317L647.273 3.9673L647.272 2.9673L640.307 2.97317L640.308 3.97317ZM654.238 3.96142L661.203 3.95554L661.202 2.95554L654.237 2.96142L654.238 3.96142ZM668.168 3.94966L675.133 3.94379L675.133 2.94379L668.168 2.94966L668.168 3.94966ZM682.099 3.93791L689.064 3.93203L689.063 2.93203L682.098 2.93791L682.099 3.93791ZM696.029 3.92615L702.994 3.92027L702.993 2.92027L696.028 2.92615L696.029 3.92615ZM709.959 3.9144L716.924 3.90852L716.923 2.90852L709.958 2.9144L709.959 3.9144ZM723.889 3.90264L730.854 3.89676L730.853 2.89676L723.888 2.90264L723.889 3.90264ZM737.819 3.89089L744.784 3.88501L744.783 2.88501L737.818 2.89089L737.819 3.89089ZM751.749 3.87913L758.715 3.87325L758.714 2.87325L751.749 2.87913L751.749 3.87913ZM765.68 3.86737L772.645 3.8615L772.644 2.8615L765.679 2.86738L765.68 3.86737ZM779.61 3.85562L786.575 3.84974L786.574 2.84974L779.609 2.85562L779.61 3.85562ZM793.54 3.84386L800.505 3.83799L800.504 2.83799L793.539 2.84386L793.54 3.84386ZM807.47 3.83211L814.435 3.82623L814.434 2.82623L807.469 2.83211L807.47 3.83211ZM821.4 3.82035L828.365 3.81448L828.365 2.81448L821.399 2.82035L821.4 3.82035ZM835.33 3.8086L842.296 3.80272L842.295 2.80272L835.33 2.8086L835.33 3.8086ZM849.261 3.79684L856.226 3.79096L856.225 2.79097L849.26 2.79684L849.261 3.79684ZM863.191 3.78509L870.156 3.77921L870.155 2.77921L863.19 2.78509L863.191 3.78509ZM877.121 3.77333L884.086 3.76745L884.085 2.76745L877.12 2.77333L877.121 3.77333ZM891.051 3.76158L898.016 3.7557L898.015 2.7557L891.05 2.76158L891.051 3.76158ZM904.981 3.74982L911.946 3.74394L911.946 2.74394L904.98 2.74982L904.981 3.74982ZM918.911 3.73807L925.877 3.73219L925.876 2.73219L918.911 2.73807L918.911 3.73807ZM932.842 3.72631L939.807 3.72043L939.806 2.72043L932.841 2.72631L932.842 3.72631ZM946.772 3.71455L953.737 3.70868L953.736 2.70868L946.771 2.71455L946.772 3.71455ZM960.702 3.7028L967.667 3.69692L967.666 2.69692L960.701 2.7028L960.702 3.7028ZM974.632 3.69104L981.597 3.68517L981.596 2.68517L974.631 2.69104L974.632 3.69104ZM988.562 3.67929L995.527 3.67341L995.527 2.67341L988.561 2.67929L988.562 3.67929ZM1002.49 3.66753L1009.46 3.66166L1009.46 2.66166L1002.49 2.66753L1002.49 3.66753ZM1016.42 3.65578L1023.39 3.6499L1023.39 2.6499L1016.42 2.65578L1016.42 3.65578ZM1030.35 3.64402L1037.32 3.63814L1037.32 2.63814L1030.35 2.64402L1030.35 3.64402ZM1044.28 3.63227L1051.25 3.62639L1051.25 2.62639L1044.28 2.63227L1044.28 3.63227ZM1058.21 3.62051L1065.18 3.61463L1065.18 2.61463L1058.21 2.62051L1058.21 3.62051ZM1072.14 3.60876L1079.11 3.60288L1079.11 2.60288L1072.14 2.60876L1072.14 3.60876ZM1086.07 3.597L1093.04 3.59112L1093.04 2.59112L1086.07 2.597L1086.07 3.597ZM1100 3.58524L1106.97 3.57937L1106.97 2.57937L1100 2.58525L1100 3.58524ZM1113.93 3.57349L1120.9 3.56761L1120.9 2.56761L1113.93 2.57349L1113.93 3.57349ZM1127.86 3.56173L1134.83 3.55586L1134.83 2.55586L1127.86 2.56173L1127.86 3.56173ZM1141.79 3.54998L1148.76 3.5441L1148.76 2.5441L1141.79 2.54998L1141.79 3.54998ZM1155.72 3.53822L1162.69 3.53235L1162.69 2.53235L1155.72 2.53822L1155.72 3.53822ZM1169.65 3.52647L1176.62 3.52059L1176.62 2.52059L1169.65 2.52647L1169.65 3.52647ZM1183.58 3.51471L1190.55 3.50883L1190.55 2.50884L1183.58 2.51471L1183.58 3.51471ZM1197.51 3.50296L1201 3.50002L1201 2.50002L1197.51 2.50296L1197.51 3.50296Z" fill="#343434"/>
</svg>
