<svg width="20" height="20" viewBox="0 0 20 20" fill="none" xmlns="http://www.w3.org/2000/svg">
<path d="M6.35475 0.730591H14.1247C17.0847 0.730591 19.4897 3.13559 19.4897 6.09559V13.8656C19.4897 15.2885 18.9245 16.6531 17.9184 17.6592C16.9122 18.6654 15.5476 19.2306 14.1247 19.2306H6.35475C3.39475 19.2306 0.989746 16.8256 0.989746 13.8656V6.09559C0.989746 4.6727 1.55499 3.3081 2.56112 2.30196C3.56725 1.29583 4.93186 0.730591 6.35475 0.730591ZM6.16975 2.58059C5.28658 2.58059 4.43958 2.93143 3.81508 3.55593C3.19058 4.18042 2.83975 5.02742 2.83975 5.91059V14.0506C2.83975 15.8913 4.329 17.3806 6.16975 17.3806H14.3097C15.1929 17.3806 16.0399 17.0298 16.6644 16.4053C17.2889 15.7808 17.6397 14.9338 17.6397 14.0506V5.91059C17.6397 4.06984 16.1505 2.58059 14.3097 2.58059H6.16975ZM15.096 3.96809C15.4027 3.96809 15.6968 4.08991 15.9136 4.30675C16.1304 4.52359 16.2522 4.81768 16.2522 5.12434C16.2522 5.431 16.1304 5.72509 15.9136 5.94193C15.6968 6.15877 15.4027 6.28059 15.096 6.28059C14.7893 6.28059 14.4952 6.15877 14.2784 5.94193C14.0616 5.72509 13.9397 5.431 13.9397 5.12434C13.9397 4.81768 14.0616 4.52359 14.2784 4.30675C14.4952 4.08991 14.7893 3.96809 15.096 3.96809ZM10.2397 5.35559C11.4664 5.35559 12.6428 5.84287 13.5101 6.71022C14.3775 7.57758 14.8647 8.75396 14.8647 9.98059C14.8647 11.2072 14.3775 12.3836 13.5101 13.251C12.6428 14.1183 11.4664 14.6056 10.2397 14.6056C9.01312 14.6056 7.83673 14.1183 6.96938 13.251C6.10202 12.3836 5.61475 11.2072 5.61475 9.98059C5.61475 8.75396 6.10202 7.57758 6.96938 6.71022C7.83673 5.84287 9.01312 5.35559 10.2397 5.35559ZM10.2397 7.20559C9.50377 7.20559 8.79794 7.49796 8.27752 8.01837C7.75711 8.53878 7.46475 9.24462 7.46475 9.98059C7.46475 10.7166 7.75711 11.4224 8.27752 11.9428C8.79794 12.4632 9.50377 12.7556 10.2397 12.7556C10.9757 12.7556 11.6816 12.4632 12.202 11.9428C12.7224 11.4224 13.0147 10.7166 13.0147 9.98059C13.0147 9.24462 12.7224 8.53878 12.202 8.01837C11.6816 7.49796 10.9757 7.20559 10.2397 7.20559Z" fill="#343434"/>
</svg>
