<svg width="143" height="910" viewBox="0 0 143 910" fill="none" xmlns="http://www.w3.org/2000/svg">
<path d="M99.1776 3.25689L83.0582 0.643227L80.4445 16.7626L96.564 19.3763L99.1776 3.25689ZM19.2115 181.952L17.2799 182.47L19.2115 181.952ZM131 335.885L132.892 335.235L131 335.885ZM78.0001 603.149L76.3182 604.232L78.0001 603.149ZM89.8111 823.142L87.8843 823.678L89.8111 823.142ZM81.6476 885.07L96.7898 901.252L105.21 879.748L83.106 881.345L81.6476 885.07ZM88.6415 8.38743C86.3785 10.0189 83.785 12.1542 80.959 14.733L83.6553 17.6877C86.4008 15.1823 88.8738 13.1511 90.9807 11.6321L88.6415 8.38743ZM67.2195 28.8841C63.2074 33.4557 59.0364 38.584 54.8717 44.1845L58.0815 46.5714C62.1815 41.0579 66.2845 36.0135 70.2259 31.5226L67.2195 28.8841ZM43.7509 60.4106C40.3406 65.8262 37.04 71.5301 33.9506 77.4707L37.4995 79.3162C40.5346 73.4799 43.7798 67.8714 47.1357 62.542L43.7509 60.4106ZM25.6666 95.338C23.2026 101.391 21.0187 107.617 19.204 113.972L23.0502 115.07C24.8218 108.867 26.9571 102.777 29.3715 96.8461L25.6666 95.338ZM14.9729 133.27C13.9895 139.779 13.4563 146.373 13.4614 153.007L17.4614 153.004C17.4564 146.586 17.9723 140.194 18.928 133.867L14.9729 133.27ZM15.1413 172.76C15.7032 176.001 16.4127 179.239 17.2799 182.47L21.1432 181.434C20.3079 178.321 19.6241 175.2 19.0825 172.077L15.1413 172.76ZM17.2799 182.47C18.1572 185.74 19.0774 188.879 20.0378 191.897L23.8495 190.684C22.9083 187.726 22.0052 184.646 21.1432 181.434L17.2799 182.47ZM26.9947 210.28C29.8634 216.7 32.9517 222.444 36.2125 227.646L39.6017 225.521C36.4419 220.48 33.441 214.902 30.6468 208.648L26.9947 210.28ZM47.9224 243.477C52.4012 248.649 57.0501 253.204 61.7656 257.41L64.428 254.424C59.8094 250.305 55.2881 245.873 50.9463 240.858L47.9224 243.477ZM76.7957 269.87C81.8822 273.91 86.8992 277.854 91.7833 282.069L94.3967 279.041C89.4362 274.76 84.3435 270.757 79.2833 266.738L76.7957 269.87ZM105.51 295.399C109.549 299.918 113.389 304.908 116.951 310.611L120.344 308.492C116.65 302.579 112.67 297.407 108.492 292.733L105.51 295.399ZM125.686 327.552C126.882 330.393 128.025 333.382 129.109 336.535L132.892 335.235C131.78 331.999 130.605 328.926 129.372 325.999L125.686 327.552ZM129.109 336.535C130.295 339.988 131.365 343.291 132.321 346.45L136.149 345.29C135.178 342.081 134.093 338.731 132.892 335.235L129.109 336.535ZM137.219 366.189C138.652 374.059 139.092 380.634 138.717 386.127L142.708 386.4C143.111 380.491 142.629 373.572 141.154 365.472L137.219 366.189ZM132.416 403.932C128.476 408.582 122.819 411.396 115.812 413.087L116.751 416.976C124.231 415.169 130.784 412.045 135.468 406.518L132.416 403.932ZM95.7728 415.397C89.1752 415.645 82.2828 415.627 75.2178 415.742L75.2826 419.741C82.2407 419.629 89.273 419.644 95.9234 419.394L95.7728 415.397ZM54.4638 416.846C47.3253 417.635 40.3622 418.992 33.9356 421.388L35.3329 425.136C41.3496 422.893 47.9639 421.589 54.9031 420.822L54.4638 416.846ZM15.991 432.793C11.4092 437.514 7.67246 443.506 5.01935 451.079L8.79443 452.402C11.2723 445.328 14.7172 439.849 18.8613 435.579L15.991 432.793ZM0.912345 471.652C0.640001 474.964 0.5 478.468 0.5 482.177H4.5C4.5 478.569 4.63623 475.174 4.89889 471.98L0.912345 471.652ZM0.5 482.177C0.5 485.607 0.514796 488.7 0.554611 491.498L4.55421 491.441C4.51476 488.669 4.5 485.597 4.5 482.177H0.5ZM1.90832 510.226C2.6681 514.027 3.83451 516.847 5.61929 519.377C7.36885 521.858 9.65583 523.974 12.4632 526.414L15.0869 523.394C12.2802 520.955 10.33 519.117 8.88816 517.072C7.48151 515.078 6.50219 512.801 5.83075 509.442L1.90832 510.226ZM26.0253 538.68C29.6263 542.239 33.756 546.61 38.4897 552.131L41.5264 549.527C36.7219 543.923 32.5173 539.473 28.8372 535.835L26.0253 538.68ZM49.9864 566.371C53.3677 570.791 56.9844 575.71 60.8523 581.201L64.1225 578.898C60.2263 573.366 56.5785 568.404 53.1631 563.941L49.9864 566.371ZM71.2408 596.444C72.894 598.945 74.5861 601.54 76.3182 604.232L79.682 602.067C77.9413 599.362 76.2402 596.754 74.5778 594.239L71.2408 596.444ZM76.3182 604.232C78.2003 607.157 79.8102 609.847 81.1765 612.338L84.6836 610.414C83.2649 607.828 81.6056 605.057 79.682 602.067L76.3182 604.232ZM87.5389 629.289C88.4085 635.645 86.8345 640.6 84.1253 646.483L87.7586 648.156C90.5938 642 92.5233 636.212 91.502 628.747L87.5389 629.289ZM76.1615 663.823C74.1479 669 72.2614 675.05 70.8609 682.433L74.7908 683.179C76.1415 676.059 77.9559 670.244 79.8893 665.274L76.1615 663.823ZM68.6808 701.489C68.3998 707.251 68.3885 713.606 68.7213 720.654L72.7169 720.465C72.3896 713.535 72.4018 707.308 72.6761 701.684L68.6808 701.489ZM70.3032 739.683C70.9874 745.602 71.8798 751.918 73.0081 758.668L76.9533 758.009C75.8354 751.321 74.9526 745.071 74.2768 739.224L70.3032 739.683ZM76.5144 777.332C77.734 783.221 79.1125 789.394 80.6629 795.87L84.553 794.938C83.0115 788.501 81.6421 782.367 80.4313 776.521L76.5144 777.332ZM85.3329 814.311C86.1482 817.372 86.9983 820.494 87.8843 823.678L91.7379 822.605C90.8558 819.436 90.0096 816.328 89.1982 813.281L85.3329 814.311ZM87.8843 823.678C88.9242 827.414 89.8922 830.995 90.7918 834.427L94.6611 833.413C93.7561 829.961 92.7829 826.36 91.7379 822.605L87.8843 823.678ZM95.952 855.778C97.7672 864.114 99.0358 871.205 99.8559 877.206L103.819 876.665C102.982 870.538 101.693 863.341 99.8605 854.926L95.952 855.778ZM100.701 898.6C100.279 901.646 99.5474 903.461 98.8024 904.466C98.125 905.378 97.4559 905.616 96.7914 905.606C95.9967 905.594 94.9299 905.212 93.6659 904.313C92.4275 903.432 91.1553 902.164 89.9888 900.663L86.8311 903.119C88.1728 904.844 89.7168 906.413 91.3474 907.573C92.9523 908.714 94.8072 909.577 96.7315 909.605C98.7861 909.636 100.634 908.71 102.015 906.849C103.328 905.078 104.198 902.508 104.663 899.149L100.701 898.6Z" fill="#A8A8A8"/>
</svg>
