<svg width="18" height="18" viewBox="0 0 18 18" fill="none" xmlns="http://www.w3.org/2000/svg">
<path d="M17.898 16.4656C16.5812 14.2299 14.5521 12.6268 12.1841 11.8668C13.3555 11.182 14.2655 10.1384 14.7745 8.89644C15.2835 7.65446 15.3634 6.28271 15.0018 4.99186C14.6402 3.701 13.8571 2.56242 12.7729 1.75095C11.6886 0.939479 10.3632 0.5 9 0.5C7.63684 0.5 6.31136 0.939479 5.22712 1.75095C4.14289 2.56242 3.35984 3.701 2.99824 4.99186C2.63664 6.28271 2.71647 7.65446 3.22548 8.89644C3.7345 10.1384 4.64454 11.182 5.81586 11.8668C3.44786 12.6259 1.41876 14.229 0.102048 16.4656C0.0537623 16.5429 0.0217345 16.629 0.0078546 16.7186C-0.00602527 16.8083 -0.00147602 16.8998 0.0212339 16.9877C0.0439439 17.0757 0.0843545 17.1582 0.140082 17.2306C0.195809 17.3029 0.265723 17.3636 0.3457 17.4089C0.425677 17.4543 0.514097 17.4835 0.605742 17.4947C0.697387 17.506 0.790402 17.4991 0.879298 17.4745C0.968193 17.4499 1.05117 17.4081 1.12333 17.3514C1.19549 17.2948 1.25538 17.2246 1.29945 17.1449C2.92826 14.3802 5.80722 12.7295 9 12.7295C12.1928 12.7295 15.0717 14.3802 16.7006 17.1449C16.7446 17.2246 16.8045 17.2948 16.8767 17.3514C16.9488 17.4081 17.0318 17.4499 17.1207 17.4745C17.2096 17.4991 17.3026 17.506 17.3943 17.4947C17.4859 17.4835 17.5743 17.4543 17.6543 17.4089C17.7343 17.3636 17.8042 17.3029 17.8599 17.2306C17.9156 17.1582 17.9561 17.0757 17.9788 16.9877C18.0015 16.8998 18.006 16.8083 17.9921 16.7186C17.9783 16.629 17.9462 16.5429 17.898 16.4656ZM4.15852 6.6159C4.15852 5.67545 4.44247 4.75612 4.97445 3.97416C5.50644 3.1922 6.26258 2.58274 7.14725 2.22284C8.03191 1.86294 9.00537 1.76878 9.94453 1.95225C10.8837 2.13573 11.7464 2.5886 12.4234 3.2536C13.1005 3.9186 13.5616 4.76586 13.7485 5.68825C13.9353 6.61063 13.8394 7.5667 13.4729 8.43557C13.1065 9.30443 12.486 10.0471 11.6898 10.5696C10.8936 11.092 9.95755 11.3709 9 11.3709C7.71638 11.3696 6.48573 10.8682 5.57807 9.97672C4.67042 9.08527 4.15989 7.8766 4.15852 6.6159Z" fill="#242121"/>
</svg>
