<svg width="24" height="21" viewBox="0 0 24 21" fill="none" xmlns="http://www.w3.org/2000/svg">
<path d="M14.3304 20.2093L23.9404 10.5493L14.3304 0.889276C14.2436 0.775303 14.1334 0.681307 14.0071 0.613654C13.8808 0.546 13.7415 0.506268 13.5985 0.497146C13.4556 0.488024 13.3123 0.509727 13.1784 0.560784C13.0446 0.611841 12.9233 0.69106 12.8227 0.793079C12.7221 0.895098 12.6447 1.01753 12.5955 1.1521C12.5464 1.28667 12.5267 1.43022 12.5379 1.57304C12.549 1.71586 12.5908 1.85462 12.6602 1.97991C12.7297 2.10521 12.8252 2.21412 12.9404 2.29928L20.1304 9.54928L1.00043 9.54928C0.735212 9.54928 0.480859 9.65463 0.293323 9.84217C0.105787 10.0297 0.000428726 10.2841 0.000428714 10.5493C0.000428702 10.8145 0.105787 11.0688 0.293323 11.2564C0.480859 11.4439 0.735212 11.5493 1.00043 11.5493L20.1304 11.5493L12.9404 18.7993C12.7535 18.9876 12.6489 19.2424 12.6499 19.5078C12.6508 19.7732 12.7571 20.0273 12.9454 20.2143C13.1337 20.4013 13.3886 20.5058 13.654 20.5048C13.9193 20.5039 14.1735 20.3976 14.3604 20.2093L14.3304 20.2093Z" fill="white"/>
</svg>
