<svg width="50" height="50" viewBox="0 0 50 50" fill="none" xmlns="http://www.w3.org/2000/svg">
<rect y="-0.000244141" width="49.94" height="50.0097" rx="24.97" fill="#0B0A0A"/>
<path d="M27.3299 34.7139L36.9399 25.0539L27.3299 15.3939C27.2432 15.2799 27.1329 15.1859 27.0066 15.1183C26.8803 15.0506 26.741 15.0109 26.598 15.0018C26.4551 14.9927 26.3118 15.0144 26.178 15.0654C26.0441 15.1165 25.9228 15.1957 25.8222 15.2977C25.7216 15.3997 25.6442 15.5222 25.595 15.6567C25.5459 15.7913 25.5262 15.9349 25.5374 16.0777C25.5486 16.2205 25.5903 16.3593 25.6597 16.4846C25.7292 16.6098 25.8247 16.7188 25.9399 16.8039L33.1299 24.0539L13.9999 24.0539C13.7347 24.0539 13.4804 24.1593 13.2928 24.3468C13.1053 24.5343 12.9999 24.7887 12.9999 25.0539C12.9999 25.3191 13.1053 25.5735 13.2928 25.761C13.4804 25.9486 13.7347 26.0539 13.9999 26.0539L33.1299 26.0539L25.9399 33.3039C25.753 33.4922 25.6484 33.7471 25.6494 34.0125C25.6503 34.2778 25.7566 34.5319 25.9449 34.7189C26.1332 34.9059 26.3881 35.0104 26.6535 35.0095C26.9188 35.0085 27.173 34.9022 27.3599 34.7139L27.3299 34.7139Z" fill="white"/>
</svg>
