<svg width="25" height="21" viewBox="0 0 25 21" fill="none" xmlns="http://www.w3.org/2000/svg">
<path d="M14.8304 20.2093L24.4404 10.5493L14.8304 0.889276C14.7436 0.775303 14.6334 0.681307 14.5071 0.613654C14.3808 0.546 14.2415 0.506268 14.0985 0.497146C13.9556 0.488024 13.8123 0.509727 13.6784 0.560784C13.5446 0.611841 13.4233 0.69106 13.3227 0.793079C13.2221 0.895098 13.1447 1.01753 13.0955 1.1521C13.0464 1.28667 13.0267 1.43022 13.0379 1.57304C13.049 1.71586 13.0908 1.85462 13.1602 1.97991C13.2297 2.10521 13.3252 2.21412 13.4404 2.29928L20.6304 9.54928L1.50043 9.54928C1.23521 9.54928 0.980859 9.65463 0.793323 9.84217C0.605787 10.0297 0.500429 10.2841 0.500429 10.5493C0.500429 10.8145 0.605787 11.0688 0.793323 11.2564C0.980859 11.4439 1.23521 11.5493 1.50043 11.5493L20.6304 11.5493L13.4404 18.7993C13.2535 18.9876 13.1489 19.2424 13.1499 19.5078C13.1508 19.7732 13.2571 20.0273 13.4454 20.2143C13.6337 20.4013 13.8886 20.5058 14.154 20.5048C14.4193 20.5039 14.6735 20.3976 14.8604 20.2093L14.8304 20.2093Z" fill="black"/>
</svg>
