<svg width="27" height="31" viewBox="0 0 27 31" fill="none" xmlns="http://www.w3.org/2000/svg">
<path d="M25.7449 8.15381L25.7045 22.394L13.3938 29.5486L13.4342 15.3084L25.7449 8.15381Z" stroke="#2B2B2B" stroke-width="1.06715" stroke-linecap="round" stroke-linejoin="round"/>
<path d="M5.2823 24.8697L13.3943 29.5489L13.4222 20.9077L13.4361 15.3094L8.22073 12.3014L1.04178 8.15137L1 22.3979L3.11678 23.6234" stroke="#2B2B2B" stroke-width="1.06715" stroke-linecap="round" stroke-linejoin="round"/>
<path d="M25.7458 8.15388L13.4351 15.3085L1.04358 8.15458L13.3543 1L25.7458 8.15388Z" stroke="#2B2B2B" stroke-width="1.06715" stroke-linecap="round" stroke-linejoin="round"/>
<path d="M13.3937 20.9104C16.629 20.9104 19.2517 18.2877 19.2517 15.0524C19.2517 11.8171 16.629 9.19434 13.3937 9.19434C10.1584 9.19434 7.53564 11.8171 7.53564 15.0524C7.53564 18.2877 10.1584 20.9104 13.3937 20.9104Z" stroke="#2B2B2B" stroke-width="1.06715" stroke-linecap="round" stroke-linejoin="round"/>
<path d="M8.57096 19.8765L9.25265 19.1948M8.57096 19.8765V21.5818L4.2239 25.9288L2.51794 24.2236L6.865 19.8765H8.57096Z" stroke="#2B2B2B" stroke-width="1.06715" stroke-linecap="round" stroke-linejoin="round"/>
</svg>
